#N canvas 4 52 1920 989 12;
#X obj 400 60 netreceive -u 8001;
#X obj 399 112 unpack f f f f;
#X obj 174 203 expr 1200 - ($f1 * 200);
#X obj 164 258 metro;
#X obj 170 302 bng 19 250 50 0 empty empty empty 0 -10 0 12 #fcfcfc #000000 #000000;
#X obj 71 202 loadbang;
#X msg 90 242 1;
#X obj 289 271 * 100;
#X obj 289 310 + 200;
#X obj 236 366 f;
#X obj 275 426 sig~;
#X obj 276 465 osc~;
#X obj 278 542 dac~;
#X obj 355 406 *~;
#X obj 362 314 sig~;
#X obj 301 361 noise~;
#X obj 404 606 +~;
#X obj 344 245 expr pow($f1 \, 2);
#X obj 490 194 select 1 2 3;
#X msg 488 235 200;
#X msg 537 245 500;
#X msg 583 253 800;
#X obj 540 313 s freq;
#X obj 395 344 r freq;
#X obj 395 383 sig~;
#X obj 403 450 osc~;
#X obj 306 171 s phase;
#X obj 464 306 r phase;
#X obj 464 330 * 2;
#X obj 464 354 + 2;
#X obj 464 378 osc~;
#X obj 379 205 * 0.2;
#X obj 465 442 +~ 0.8;
#X obj 451 500 *~;
#X obj 461 533 *~ 1;
#X obj 277 504 *~ 0.8;
#X obj 465 410 *~ 0.5;
#X connect 0 0 1 0;
#X connect 1 0 2 0;
#X connect 1 0 26 0;
#X connect 1 1 7 0;
#X connect 1 2 31 0;
#X connect 1 3 18 0;
#X connect 2 0 3 1;
#X connect 3 0 4 0;
#X connect 4 0 9 0;
#X connect 5 0 6 0;
#X connect 6 0 3 0;
#X connect 7 0 8 0;
#X connect 8 0 9 1;
#X connect 9 0 10 0;
#X connect 10 0 11 0;
#X connect 11 0 35 0;
#X connect 13 0 16 0;
#X connect 14 0 13 1;
#X connect 15 0 13 0;
#X connect 16 0 12 0;
#X connect 17 0 14 0;
#X connect 18 0 19 0;
#X connect 18 1 20 0;
#X connect 18 2 21 0;
#X connect 19 0 22 0;
#X connect 20 0 22 0;
#X connect 21 0 22 0;
#X connect 23 0 24 0;
#X connect 24 0 25 0;
#X connect 25 0 16 0;
#X connect 25 0 33 0;
#X connect 27 0 28 0;
#X connect 28 0 29 0;
#X connect 29 0 30 0;
#X connect 30 0 36 0;
#X connect 31 0 17 0;
#X connect 32 0 33 1;
#X connect 33 0 34 0;
#X connect 34 0 16 1;
#X connect 35 0 12 0;
#X connect 36 0 32 0;
