#N canvas 200 100 1920 989 12;
#X obj 400 60 netreceive -u 8001;
#X obj 400 90 print SIMPLE;
#X obj 400 120 unpack f f f f;
#X obj 124 294 print PHASE;
#X obj 291 51 print GF;
#X obj 590 44 print GA;
#X obj 885 267 print RESULT;
#X obj 412 226 expr 1200 - ($f1 * 200);
#X obj 402 281 metro;
#X obj 408 325 bng 19 250 50 0 empty empty empty 0 -10 0 12 #fcfcfc #000000 #000000;
#X obj 309 225 loadbang;
#X msg 328 265 1;
#X obj 527 308 * 100;
#X obj 527 347 + 200;
#X obj 474 389 f;
#X obj 527 418 sig~;
#X obj 528 457 osc~;
#X obj 529 496 *~ 0.4;
#X obj 530 534 dac~;
#X obj 336 472 print FREQ;
#X obj 576 391 print SUMA;
#X connect 0 0 1 0;
#X connect 0 0 2 0;
#X connect 2 0 3 0;
#X connect 2 0 7 0;
#X connect 2 1 4 0;
#X connect 2 1 12 0;
#X connect 2 2 5 0;
#X connect 2 3 6 0;
#X connect 7 0 8 1;
#X connect 8 0 9 0;
#X connect 9 0 14 0;
#X connect 10 0 11 0;
#X connect 11 0 8 0;
#X connect 12 0 13 0;
#X connect 13 0 14 1;
#X connect 13 0 20 0;
#X connect 14 0 15 0;
#X connect 14 0 19 0;
#X connect 15 0 16 0;
#X connect 16 0 17 0;
#X connect 17 0 18 0;
